<svg xmlns="http://www.w3.org/2000/svg" width="200" height="200" class="icon" viewBox="0 0 1024 1024"><defs><style/></defs><path d="M459.985 681.31a28.975 28.975 0 0 1-20.48-8.495L256 489.89a29.09 29.09 0 0 1 40.96-41.31l163.607 162.91 260.888-260.306a29.09 29.09 0 1 1 40.96 41.31l-281.95 280.32a28.975 28.975 0 0 1-20.48 8.494z"/><path d="M875.636 1000.727h-733.09A122.298 122.298 0 0 1 20.363 878.545v-733.09A122.298 122.298 0 0 1 142.545 23.273h733.091a122.298 122.298 0 0 1 122.182 122.182v733.09a122.298 122.298 0 0 1-122.182 122.182zM142.546 81.455a64.116 64.116 0 0 0-64 64v733.09a64.116 64.116 0 0 0 64 64h733.09a64.116 64.116 0 0 0 64-64v-733.09a64.116 64.116 0 0 0-64-64z"/></svg>