<?xml version="1.0" standalone="no"?><!DOCTYPE svg PUBLIC "-//W3C//DTD SVG 1.1//EN" "http://www.w3.org/Graphics/SVG/1.1/DTD/svg11.dtd"><svg t="1601088776093" class="icon" viewBox="0 0 1024 1024" version="1.1" xmlns="http://www.w3.org/2000/svg" p-id="1282" xmlns:xlink="http://www.w3.org/1999/xlink" width="200" height="200"><defs><style type="text/css"></style></defs><path d="M955.733333 682.666667h-102.4v-34.133334h102.4a33.1776 33.1776 0 0 0 34.133334-34.133333V68.266667a33.1776 33.1776 0 0 0-34.133334-34.133334H68.266667a33.1776 33.1776 0 0 0-34.133334 34.133334v546.133333a33.1776 33.1776 0 0 0 34.133334 34.133333h34.133333v34.133334H68.266667a68.471467 68.471467 0 0 1-68.266667-68.266667V68.266667a68.471467 68.471467 0 0 1 68.266667-68.266667h887.466666a68.471467 68.471467 0 0 1 68.266667 68.266667v546.133333a68.471467 68.471467 0 0 1-68.266667 68.266667zM273.066667 341.333333a68.266667 68.266667 0 1 1 68.266666 68.266667 68.471467 68.471467 0 0 1-68.266666-68.266667z m102.4 0a34.133333 34.133333 0 1 0-34.133334 34.133334 33.1776 33.1776 0 0 0 34.133334-34.133334z m563.2-170.666666h-341.333334a17.066667 17.066667 0 0 1 0-34.133334h341.333334a17.066667 17.066667 0 0 1 0 34.133334z m0 102.4h-136.533334a17.066667 17.066667 0 0 1 0-34.133334h136.533334a17.066667 17.066667 0 0 1 0 34.133334zM17.066667 989.866667H68.266667v-102.4a101.410133 101.410133 0 0 1 102.4-102.4v-68.266667a100.932267 100.932267 0 0 1 68.266666-96.256V477.866667a33.1776 33.1776 0 0 1 34.133334-34.133334h136.533333a30.378667 30.378667 0 0 1 30.72 25.258667l238.933333-163.498667a17.988267 17.988267 0 0 1 23.893334 5.12 17.066667 17.066667 0 0 1-6.826667 23.552L443.733333 509.269333v111.274667a93.730133 93.730133 0 0 1 34.133334-6.144h34.133333a102.4 102.4 0 0 0 170.666667 0h34.133333a101.410133 101.410133 0 0 1 102.4 102.4v68.266667a101.410133 101.410133 0 0 1 102.4 102.4v102.4h85.333333a17.066667 17.066667 0 0 1 0 34.133333H17.066667a17.066667 17.066667 0 0 1 0-34.133333zM204.8 733.866667V785.066667a96.699733 96.699733 0 0 1 75.093333 34.133333h20.48a96.699733 96.699733 0 0 1 75.093334-34.133333v-51.2a85.333333 85.333333 0 0 0-170.666667 0z m204.8-256H273.066667v136.533333h34.133333a103.253333 103.253333 0 0 1 85.333333 45.738667 63.8976 63.8976 0 0 1 17.066667-19.114667V477.866667z m170.666667 256a85.333333 85.333333 0 0 0-170.666667 0V785.066667a96.699733 96.699733 0 0 1 75.093333 34.133333h20.48a96.699733 96.699733 0 0 1 75.093334-34.133333v-51.2z m204.8 0a85.333333 85.333333 0 0 0-170.666667 0V785.066667a96.699733 96.699733 0 0 1 75.093333 34.133333h20.48a96.699733 96.699733 0 0 1 75.093334-34.133333v-51.2z m102.4 256v-85.333334a85.333333 85.333333 0 0 0-170.666667 0V989.866667h170.666667z m-204.8 0v-85.333334a85.333333 85.333333 0 0 0-170.666667 0V989.866667h170.666667z m-204.8 0v-85.333334a85.333333 85.333333 0 0 0-170.666667 0V989.866667h170.666667z m-204.8 0v-85.333334a85.333333 85.333333 0 0 0-170.666667 0V989.866667h170.666667z" fill="#162248" p-id="1283"></path></svg>