<svg xmlns="http://www.w3.org/2000/svg" width="200" height="200" class="icon" viewBox="0 0 1024 1024"><defs><style/></defs><path d="M919.695 109.29c-51.195-51.197-134.22-51.197-185.378-.02l-8.424 8.405c78.68 42.009 143.484 106.547 185.682 185.111l8.12-8.12c51.195-51.194 51.195-134.183 0-185.377zM298.26 119.123l-9.834-9.854c-51.234-51.177-134.221-51.177-185.416.02-51.196 51.194-51.196 134.182 0 185.377l11.11 11.112c41.647-78.889 105.803-144.075 184.14-186.655z"/><path d="M513.583 121.64c-217.953 0-394.64 176.685-394.64 394.619 0 105.171 41.132 200.717 108.18 271.45l-24.734 178.006 146.336-90.797c50.167 23.095 106.007 35.981 164.859 35.981 58.924 0 114.825-12.917 165.035-36.066l146.5 90.882-24.767-178.357c66.841-70.696 107.83-166.1 107.83-271.099 0-217.934-176.648-394.62-394.6-394.62zm0 706.652c-172.323 0-312.033-139.672-312.033-312.033 0-172.322 139.71-312.013 312.033-312.013 172.36 0 312.032 139.691 312.032 312.013 0 172.36-139.673 312.033-312.032 312.033z"/><path d="M509.522 321.884h-61.03v255.463h255.024V516.26H509.522z"/></svg>