<?xml version="1.0" standalone="no"?><!DOCTYPE svg PUBLIC "-//W3C//DTD SVG 1.1//EN" "http://www.w3.org/Graphics/SVG/1.1/DTD/svg11.dtd"><svg t="1594195790543" class="icon" viewBox="0 0 1024 1024" version="1.1" xmlns="http://www.w3.org/2000/svg" p-id="1528" xmlns:xlink="http://www.w3.org/1999/xlink" width="200" height="200"><defs><style type="text/css"></style></defs><path d="M928 0H288c-53.02 0-96 42.98-96 96v96H96c-53.02 0-96 42.98-96 96v640c0 53.02 42.98 96 96 96h640c53.02 0 96-42.98 96-96v-96h96c53.02 0 96-42.98 96-96V96c0-53.02-42.98-96-96-96zM724 928H108a12 12 0 0 1-12-12V300a12 12 0 0 1 12-12h84v448c0 53.02 42.98 96 96 96h448v84a12 12 0 0 1-12 12z m192-192H300a12 12 0 0 1-12-12V108a12 12 0 0 1 12-12h616a12 12 0 0 1 12 12v616a12 12 0 0 1-12 12z" p-id="1529"></path></svg>