<?xml version="1.0" standalone="no"?><!DOCTYPE svg PUBLIC "-//W3C//DTD SVG 1.1//EN" "http://www.w3.org/Graphics/SVG/1.1/DTD/svg11.dtd"><svg t="1594621694538" class="icon" viewBox="0 0 1024 1024" version="1.1" xmlns="http://www.w3.org/2000/svg" p-id="1207" xmlns:xlink="http://www.w3.org/1999/xlink" width="200" height="200"><defs><style type="text/css"></style></defs><path d="M198.826667 161.621333v726.784h636.501333V161.621333h-75.733333l-38.656 54.314667a107.733333 107.733333 0 0 1-87.765334 45.226667H400.853333a107.733333 107.733333 0 0 1-87.765333-45.226667l-38.656-54.314667H198.784z m-11.776-59.733333h93.44c15.530667 0 30.08 7.552 39.082666 20.181333l42.154667 59.221334c9.002667 12.672 23.594667 20.181333 39.125333 20.181333h232.32c15.530667 0 30.122667-7.509333 39.125334-20.181333l42.154666-59.221334c8.96-12.629333 23.552-20.181333 39.082667-20.181333h93.525333c26.496 0 48 21.504 48 48v750.250667c0 26.496-21.504 48-48 48H187.050667A48 48 0 0 1 139.093333 900.138667V149.888c0-26.453333 21.504-48 48-48z" p-id="1208"></path><path d="M290.261333 380.672m29.866667 0l393.856 0q29.866667 0 29.866667 29.866667l0 0q0 29.866667-29.866667 29.866666l-393.856 0q-29.866667 0-29.866667-29.866666l0 0q0-29.866667 29.866667-29.866667Z" p-id="1209"></path><path d="M290.261333 530.005333m29.866667 0l393.856 0q29.866667 0 29.866667 29.866667l0 0q0 29.866667-29.866667 29.866667l-393.856 0q-29.866667 0-29.866667-29.866667l0 0q0-29.866667 29.866667-29.866667Z" p-id="1210"></path><path d="M290.261333 679.338667m29.866667 0l393.856 0q29.866667 0 29.866667 29.866666l0 0q0 29.866667-29.866667 29.866667l-393.856 0q-29.866667 0-29.866667-29.866667l0 0q0-29.866667 29.866667-29.866666Z" p-id="1211"></path><path d="M391.082667 101.888m29.866666 0l192.256 0q29.866667 0 29.866667 29.866667l0 0q0 29.866667-29.866667 29.866666l-192.256 0q-29.866667 0-29.866666-29.866666l0 0q0-29.866667 29.866666-29.866667Z" p-id="1212"></path></svg>