<?xml version="1.0" standalone="no"?><!DOCTYPE svg PUBLIC "-//W3C//DTD SVG 1.1//EN" "http://www.w3.org/Graphics/SVG/1.1/DTD/svg11.dtd"><svg t="1600501813250" class="icon" viewBox="0 0 1024 1024" version="1.1" xmlns="http://www.w3.org/2000/svg" p-id="2151" xmlns:xlink="http://www.w3.org/1999/xlink" width="200" height="200"><defs><style type="text/css"></style></defs><path d="M294.436713 512c0 47.864373-39.16176 87.02511-87.02511 87.02511S120.385469 559.864373 120.385469 512s39.16176-87.02511 87.02511-87.02511S294.436713 464.135627 294.436713 512z" p-id="2152"></path><path d="M599.02511 512c0 47.864373-39.16176 87.02511-87.02511 87.02511S424.97489 559.864373 424.97489 512 464.135627 424.97489 512 424.97489 599.02511 464.135627 599.02511 512z" p-id="2153"></path><path d="M903.614531 512c0 47.864373-39.16176 87.02511-87.02511 87.02511S729.563287 559.864373 729.563287 512s39.16176-87.02511 87.02511-87.02511S903.614531 464.135627 903.614531 512z" p-id="2154"></path></svg>