<svg xmlns="http://www.w3.org/2000/svg" width="200" height="200" class="icon" viewBox="0 0 1024 1024"><defs><style/></defs><path d="M512 854.272c-333.44 0-448-299.52-448-331.136C64 491.456 177.28 192 512 192c334.656 0 448 298.816 448 331.136 0 32.32-114.56 331.136-448 331.136zm0-124.16c115.968 0 209.984-92.672 209.984-206.976S627.968 316.16 512 316.16s-209.984 92.672-209.984 206.976S396.032 730.112 512 730.112zm0-82.816c-69.568 0-126.016-55.616-126.016-124.16 0-68.608 56.448-124.16 126.016-124.16 69.568 0 126.016 55.552 126.016 124.16 0 68.544-56.448 124.16-126.016 124.16z"/></svg>