<?xml version="1.0" standalone="no"?><!DOCTYPE svg PUBLIC "-//W3C//DTD SVG 1.1//EN" "http://www.w3.org/Graphics/SVG/1.1/DTD/svg11.dtd"><svg t="1600247569369" class="icon" viewBox="0 0 1024 1024" version="1.1" xmlns="http://www.w3.org/2000/svg" p-id="1777" xmlns:xlink="http://www.w3.org/1999/xlink" width="200" height="200"><defs><style type="text/css"></style></defs><path d="M204.8 750.9504h614.4v68.27008H204.8zM477.87008 648.5504V238.90944a34.24256 34.24256 0 0 0-34.14016-34.12992H307.2a34.24256 34.24256 0 0 0-34.12992 34.12992v409.64096c0 18.75968 15.36 34.12992 34.12992 34.12992h136.52992a34.24256 34.24256 0 0 0 34.14016-34.12992z m-136.54016-34.14016V273.0496H409.6v341.36064h-68.27008zM580.27008 682.68032a34.24256 34.24256 0 0 1-34.14016-34.12992v-273.1008a34.2528 34.2528 0 0 1 34.14016-34.14016H716.8a34.24256 34.24256 0 0 1 34.12992 34.14016v273.1008c0 18.75968-15.36 34.12992-34.12992 34.12992H580.27008z" p-id="1778"></path></svg>