<svg xmlns="http://www.w3.org/2000/svg" width="200" height="200" class="icon" viewBox="0 0 1024 1024"><defs><style/></defs><path d="M977.772 960.82H75.556c62.945-31.811 178.882-93.86 200.581-129.7l385.162-636.074c14.618-24.156 18.97-52.562 12.232-79.994s-23.772-50.591-47.908-65.209l-57.042-34.55C552.038 5.29 533.141 0 513.874 0c-37.345 0-71.183 19.052-86.723 44.708L41.99 680.8c-27.392 45.24-26.813 197.632-25.477 261.33a30.212 30.212 0 0 0 14.551 25.211c.6.358 1.27.502 1.89.809-6.493 5.55-10.686 13.68-10.686 22.892 0 16.68 13.527 30.197 30.203 30.197h925.296c16.681 0 30.208-13.522 30.208-30.197.006-16.692-13.522-30.224-30.202-30.224zM89.882 718.34L475.039 82.263c8.289-13.68 22.804-21.847 38.835-21.847 8.223 0 16.317 2.273 23.403 6.564l57.053 34.55c10.342 6.266 17.628 16.189 20.52 27.945s1.03 23.936-5.237 34.278l-385.065 635.93c-10.143 14.827-78.116 55.73-148.035 92.61.277-79.053 4.992-158.213 13.369-173.952z"/></svg>