<svg xmlns="http://www.w3.org/2000/svg" width="200" height="200" class="icon" viewBox="0 0 1024 1024"><defs><style/></defs><path d="M512.54 270.834c72.037 0 94.613-39.937 94.613-102.586S575.04 65.66 512.54 65.66s-94.612 41.096-94.612 102.587 22.576 102.586 94.612 102.586zM494.653 357.89l-13.793 72.143h62.93l-13.792-72.143zM480.86 297.558l13.793 52.87h35.345l13.793-52.87zM665.841 300.158h-80.873l-35.142 131.035H729.418v-66.38h-.106c0-.364.106-.715.106-1.078 0-35.116-28.462-63.577-63.577-63.577zM475.042 431.193l-35.494-131.035h-80.886c-35.116 0-63.578 28.461-63.578 63.578 0 .364.108.713.108 1.078h-.108v66.38h179.958z"/><path d="M926.697 471.13c0-15.235-12.35-27.586-27.586-27.586H798.168V337.429s-2.653-22.199-16.002-39.87c-13.35-17.672-27.735-25.27-27.735-25.27l-77.828-43.165c.103-.918.16-1.849.16-2.793 0-13.752-11.14-24.892-24.892-24.892s-24.892 11.14-24.892 24.892 11.14 24.892 24.892 24.892c5.044 0 9.732-1.503 13.652-4.078l78.656 43.625c28.705 20.798 31.291 46.66 31.291 46.66v106.115H124.96c-15.233 0-27.586 12.351-27.586 27.586v69.828c0 1.334.215 2.6.39 3.879-.175 1.28-.39 2.546-.39 3.88l4.31 6.923c.216.35.405.7.647 1.038l44.774 71.929c12.069 18.965 15.369 26.427 30.603 26.427h38.713l-9.86-57.315-5.576-29.175h.553l-2.573-14.952c0-7.623 6.142-13.793 13.739-13.793H812.38c7.597 0 13.74 6.169 13.74 13.793l-18.925 101.01h39.17c15.234 0 18.534-7.461 30.603-26.427l43.683-70.177c1.4-1.766 2.625-3.65 3.569-5.726l2.478-3.987c0-1.253-.201-2.451-.363-3.664.162-1.213.363-2.41.363-3.663V471.13z"/><path d="M317.512 959.633h389.654l84.9-392.208H232.585z"/></svg>