<svg xmlns="http://www.w3.org/2000/svg" width="200" height="200" class="icon" viewBox="0 0 1024 1024"><defs><style/></defs><path d="M722.96 145.857c-116.348-109.215-305.572-109.215-421.898 0-115.132 108.113-116.325 283.32-3.488 392.805l67.523 126.09 53.28-25.132-71.752-134.077-3.375-3.195c-93.038-87.345-93.038-229.5 0-316.868 93.015-87.345 244.462-87.345 337.523 0 92.992 87.367 92.992 229.5 0 316.868l-75.532 137.228 53.235 25.222 67.928-126.113c112.86-109.463 111.667-284.715-3.442-392.828zm-333.9 561.488l7.155 55.598L634.85 735.83l-7.178-55.62-238.613 27.135zm0 84.015l7.155 55.598 238.635-27.067-7.178-55.687-238.613 27.157zm122.265 112.68c-16.47 0-29.835-12.577-29.835-27.99h-59.647c0 46.373 40.162 84.015 89.505 84.015s89.505-37.665 89.505-84.015h-59.692c-.045 15.412-13.455 27.99-29.835 27.99zM332.99 343.88h59.67c0-61.785 53.505-112.028 119.295-112.028v-56.025c-98.662 0-178.965 75.375-178.965 168.053z"/></svg>