<svg xmlns="http://www.w3.org/2000/svg" width="200" height="200" class="icon" viewBox="0 0 1024 1024"><defs><style/></defs><path d="M512 249.442c-139.111 0-251.926 108.043-251.926 241.337 0 158.284 109.917 198.634 109.917 290.73 0 22.767 17.408 43.944 43.552 59.5-5.468 4.554-8.518 9.543-8.518 14.772 0 7.015 5.512 13.573 14.99 19.194-8.89 5.512-14.053 11.853-14.053 18.628 0 6.842 5.272 13.247 14.357 18.803-9.281 5.577-14.684 12.092-14.684 18.998 0 8.454 7.974 16.188 21.308 22.485-5.164 4.684-8.127 9.87-8.127 15.316 0 16.123 25.12 29.827 60.438 35.317 6.21 11.504 18.802 19.478 33.487 19.478 14.663 0 27.234-7.909 33.443-19.369 35.666-5.403 61.07-19.194 61.07-35.36 0-5.382-2.854-10.502-7.909-15.12 13.617-6.341 21.744-14.184 21.744-22.703 0-6.841-5.251-13.269-14.358-18.803 9.26-5.599 14.684-12.07 14.684-18.976 0-7.016-5.533-13.574-14.99-19.217 8.934-5.49 14.075-11.852 14.075-18.628 0-5.425-3.29-10.545-9.172-15.207 25.73-15.534 42.834-36.494 42.834-59.065 0-92.139 109.786-132.467 109.786-290.73-.022-133.337-112.815-241.38-251.948-241.38zm131.551 390.689c-25.099 36.864-53.487 78.52-55.23 135.778-8.628 9.608-39.413 25.23-76.234 25.23-36.842 0-67.65-15.622-76.255-25.274-1.743-57.278-30.175-98.936-55.318-135.778-28.04-41.09-54.512-79.894-54.512-149.33 0-96.713 83.445-175.409 185.998-175.409 102.574 0 186.02 78.696 186.02 175.41 0 69.457-26.472 108.282-54.469 149.373zM512 164.799c18.127 0 32.964-19.609 32.964-43.575v-77.65C544.964 19.61 530.127 0 512 0s-32.964 19.609-32.964 43.574v77.65c0 23.988 14.837 43.575 32.964 43.575zM343.084 210.073c15.708-9.064 18.715-33.466 6.754-54.207l-38.803-67.257c-11.983-20.764-34.642-30.328-50.35-21.265-15.71 9.064-18.738 33.466-6.777 54.207l38.847 67.257c11.983 20.763 34.62 30.328 50.329 21.265zM198.155 283.387l-67.214-38.825c-20.763-11.983-45.165-8.955-54.228 6.754-9.064 15.708.48 38.345 21.264 50.328l67.236 38.825c20.763 11.983 45.165 8.955 54.206-6.754 9.042-15.709-.5-38.345-21.264-50.328zM926.045 703.619l-67.236-38.803c-20.763-12.005-45.165-8.977-54.206 6.754-9.064 15.708.457 38.345 21.286 50.328l67.192 38.825c20.763 11.983 45.164 8.955 54.228-6.754 9.063-15.73-.48-38.367-21.264-50.35zM174.167 502.631c0-18.148-19.608-32.964-43.574-32.964h-77.65c-23.966 0-43.574 14.838-43.574 32.964 0 18.127 19.608 32.965 43.574 32.965h77.65c23.966 0 43.574-14.838 43.574-32.965zM971.057 469.667h-77.628c-23.988 0-43.574 14.838-43.574 32.964 0 18.127 19.586 32.965 43.574 32.965h77.628c23.988 0 43.574-14.838 43.574-32.965 0-18.126-19.608-32.964-43.574-32.964zM165.19 664.816l-67.235 38.803c-20.763 11.983-30.327 34.62-21.264 50.35 9.064 15.709 33.465 18.715 54.228 6.754l67.214-38.825c20.763-11.983 30.328-34.62 21.264-50.328-9.041-15.687-33.443-18.76-54.206-6.754zM858.81 340.47l67.235-38.826c20.763-11.983 30.327-34.62 21.264-50.328-9.064-15.709-33.465-18.737-54.228-6.754l-67.214 38.825c-20.742 11.983-30.328 34.62-21.264 50.328 9.041 15.709 33.443 18.737 54.206 6.754zM763.338 67.323c-15.73-9.064-38.39.5-50.373 21.264l-38.803 67.257c-11.983 20.763-8.954 45.143 6.754 54.207 15.73 9.063 38.368-.501 50.35-21.265l38.847-67.257c11.962-20.741 8.911-45.143-6.775-54.206z"/></svg>