<svg xmlns="http://www.w3.org/2000/svg" width="200" height="200" class="icon" viewBox="0 0 1024 1024"><defs><style/></defs><path d="M783.53 662.87l-60.33-60.417 60.33-60.33a213.333 213.333 0 1 0-301.695-301.696L421.504 300.8l-60.373-60.33 60.416-60.331a298.667 298.667 0 0 1 422.4 422.4l-60.374 60.33zM662.87 783.53l-60.374 60.331a298.667 298.667 0 0 1-422.4-422.4l60.373-60.33 60.331 60.416-60.33 60.33a213.333 213.333 0 1 0 301.695 301.696l60.331-60.33 60.373 60.33zM632.66 330.966l60.374 60.374-301.696 301.653-60.374-60.33 301.696-301.654z"/></svg>