<?xml version="1.0" standalone="no"?><!DOCTYPE svg PUBLIC "-//W3C//DTD SVG 1.1//EN" "http://www.w3.org/Graphics/SVG/1.1/DTD/svg11.dtd"><svg t="1593967723030" class="icon" viewBox="0 0 1024 1024" version="1.1" xmlns="http://www.w3.org/2000/svg" p-id="1209" xmlns:xlink="http://www.w3.org/1999/xlink" width="200" height="200"><defs><style type="text/css"></style></defs><path d="M768 341.333333l-42.666667 0L725.333333 256c0-119.466667-93.866667-213.333333-213.333333-213.333333C392.533333 42.666667 298.666667 136.533333 298.666667 256l0 85.333333L256 341.333333c-46.933333 0-85.333333 38.4-85.333333 85.333333l0 426.666667c0 46.933333 38.4 85.333333 85.333333 85.333333l512 0c46.933333 0 85.333333-38.4 85.333333-85.333333L853.333333 426.666667C853.333333 379.733333 814.933333 341.333333 768 341.333333zM512 725.333333c-46.933333 0-85.333333-38.4-85.333333-85.333333s38.4-85.333333 85.333333-85.333333c46.933333 0 85.333333 38.4 85.333333 85.333333S558.933333 725.333333 512 725.333333zM644.266667 341.333333 379.733333 341.333333 379.733333 256c0-72.533333 59.733333-132.266667 132.266667-132.266667 72.533333 0 132.266667 59.733333 132.266667 132.266667L644.266667 341.333333z" p-id="1210"></path></svg>