<svg xmlns="http://www.w3.org/2000/svg" width="200" height="200" class="icon" viewBox="0 0 1024 1024"><defs><style/></defs><path d="M804.571 402.286V640a54.857 54.857 0 0 1-109.714 0V438.857h-36.571V960c0 35.438-28.563 64-64 64s-64-28.562-64-64V694.857h-36.572V960c0 35.438-28.562 64-64 64s-64-28.562-64-64V438.857h-36.571V640a54.857 54.857 0 0 1-109.714 0V402.286c0-60.563 49.152-109.715 109.714-109.715h365.714c60.562 0 109.714 49.152 109.714 109.715zM640 146.286c0 70.839-57.161 128-128 128s-128-57.161-128-128 57.161-128 128-128 128 57.16 128 128z"/></svg>