<svg xmlns="http://www.w3.org/2000/svg" width="200" height="200" class="icon" viewBox="0 0 1024 1024"><defs><style/></defs><path d="M939.725 519.475l-153.6-153.6a25.6 25.6 0 0 0-36.199 36.199l109.876 109.875H512V164.147l109.875 109.875a25.498 25.498 0 0 0 36.25 0 25.6 25.6 0 0 0 0-36.198l-153.6-153.6a25.6 25.6 0 0 0-36.199 0l-153.6 153.6a25.6 25.6 0 0 0 36.199 36.198L460.8 164.147V511.95H112.998l109.876-109.875a25.6 25.6 0 0 0-36.199-36.199l-153.6 153.6a25.6 25.6 0 0 0 0 36.199l153.6 153.6a25.498 25.498 0 0 0 36.25 0 25.6 25.6 0 0 0 0-36.199L113.05 563.2h347.8v347.802L350.976 801.126a25.6 25.6 0 0 0-36.198 36.199l153.6 153.6a25.498 25.498 0 0 0 36.25 0l153.6-153.6a25.6 25.6 0 0 0-36.2-36.199L512.155 911.002V563.2h347.801L750.08 673.075a25.6 25.6 0 0 0 36.25 36.199l153.6-153.6a25.6 25.6 0 0 0 0-36.199z"/></svg>