<?xml version="1.0" standalone="no"?><!DOCTYPE svg PUBLIC "-//W3C//DTD SVG 1.1//EN" "http://www.w3.org/Graphics/SVG/1.1/DTD/svg11.dtd"><svg t="1601141421274" class="icon" viewBox="0 0 1024 1024" version="1.1" xmlns="http://www.w3.org/2000/svg" p-id="2649" xmlns:xlink="http://www.w3.org/1999/xlink" width="200" height="200"><defs><style type="text/css"></style></defs><path d="M810.666667 384a128 128 0 0 0-120.32 85.333333H128a42.666667 42.666667 0 0 0 0 85.333334h562.346667A128 128 0 1 0 810.666667 384z m0 170.666667a42.666667 42.666667 0 1 1 42.666666-42.666667 42.666667 42.666667 0 0 1-42.666666 42.666667zM128 298.666667h50.346667a128 128 0 0 0 240.64 0H896a42.666667 42.666667 0 0 0 0-85.333334H418.986667a128 128 0 0 0-240.64 0H128a42.666667 42.666667 0 0 0 0 85.333334z m170.666667-85.333334a42.666667 42.666667 0 1 1-42.666667 42.666667 42.666667 42.666667 0 0 1 42.666667-42.666667zM896 725.333333h-306.346667a128 128 0 0 0-240.64 0H128a42.666667 42.666667 0 0 0 0 85.333334h221.013333a128 128 0 0 0 240.64 0H896a42.666667 42.666667 0 0 0 0-85.333334z m-426.666667 85.333334a42.666667 42.666667 0 1 1 42.666667-42.666667 42.666667 42.666667 0 0 1-42.666667 42.666667z" fill="" p-id="2650"></path></svg>