<svg xmlns="http://www.w3.org/2000/svg" width="200" height="200" class="icon" viewBox="0 0 1024 1024"><defs><style/></defs><path d="M408.572 10.07C209.786 48.866 49.597 208.655 10.399 406.841c-73.995 373.975 263.382 652.756 517.565 613.358 82.394-12.799 122.791-109.192 84.994-183.387-46.197-90.794 19.799-196.787 121.792-196.787h159.389c71.595 0 129.59-59.196 129.79-130.59-.999-315.18-287.78-563.162-615.357-499.367zM191.987 640.025c-35.398 0-63.996-28.598-63.996-63.995s28.598-63.996 63.996-63.996 63.995 28.598 63.995 63.996-28.598 63.995-63.995 63.995zm63.995-255.982c-35.397 0-63.995-28.598-63.995-63.996s28.598-63.995 63.995-63.995 63.996 28.598 63.996 63.995-28.598 63.996-63.996 63.996zm255.983-127.991c-35.398 0-63.996-28.598-63.996-63.996s28.598-63.996 63.996-63.996 63.996 28.598 63.996 63.996-28.598 63.996-63.996 63.996zm255.982 127.99c-35.397 0-63.995-28.597-63.995-63.995s28.598-63.995 63.995-63.995 63.996 28.598 63.996 63.995-28.598 63.996-63.996 63.996z"/></svg>