<svg xmlns="http://www.w3.org/2000/svg" width="200" height="200" class="icon" viewBox="0 0 1024 1024"><defs><style/></defs><path d="M341.333 469.333A149.333 149.333 0 1 0 192 320a149.333 149.333 0 0 0 149.333 149.333zm0-213.333a64 64 0 1 1-64 64 64 64 0 0 1 64-64zm341.334 341.333A149.333 149.333 0 1 0 832 746.667a149.333 149.333 0 0 0-149.333-149.334zm0 213.334a64 64 0 1 1 64-64 64 64 0 0 1-64 64zM842.24 181.76a37.973 37.973 0 0 0-53.76 0L181.76 788.48a38.827 38.827 0 0 0-11.093 26.88 37.973 37.973 0 0 0 64.853 26.88l606.72-606.72a37.973 37.973 0 0 0 0-53.76z"/></svg>