<svg xmlns="http://www.w3.org/2000/svg" width="200" height="200" class="icon" viewBox="0 0 1024 1024"><defs><style/></defs><path d="M512 1024C229.216 1024 0 794.752 0 512 0 229.216 229.216 0 512 0c282.752 0 512 229.216 512 512 0 282.752-229.248 512-512 512zm-38.72-197.248h78.048v-79.264H473.28v79.264zm181.728-583.136C618.88 211.84 571.584 196 512.96 196c-55.264 0-100.896 16.16-136.864 48.448-35.936 32.288-56.288 75.936-61.024 130.944h81.216c11.68-77.856 49.28-100 115.936-100 34.144 0 63.36-6.272 84.448 14.752 21.12 20.992 31.68 47.712 31.68 80.16 0 16.608-3.904 32.384-11.648 47.168-7.808 14.816-27.744 36.064-59.808 63.68-32.096 27.616-54.08 53.664-66.016 78.08-11.936 24.384-18.048 57.536-18.048 109.984h78.784c0-39.776-1.44-62.912 6.336-80 7.776-17.024 28.736-39.968 62.88-68.736 34.176-28.768 57.44-54.976 69.792-78.688 12.32-23.68 18.528-49.344 18.528-76.992 0-49.088-18.048-89.504-54.144-121.184z"/></svg>