<?xml version="1.0" standalone="no"?><!DOCTYPE svg PUBLIC "-//W3C//DTD SVG 1.1//EN" "http://www.w3.org/Graphics/SVG/1.1/DTD/svg11.dtd"><svg t="1600501422634" class="icon" viewBox="0 0 1024 1024" version="1.1" xmlns="http://www.w3.org/2000/svg" p-id="1264" xmlns:xlink="http://www.w3.org/1999/xlink" width="200" height="200"><defs><style type="text/css"></style></defs><path d="M782.933333 302.933333l-2.133333 85.333334-170.666667 170.666666-53.333333-53.333333c-4.266667-4.266667-8.533333-4.266667-12.8-4.266667s-8.533333 2.133333-12.8 4.266667l-85.333333 83.2h-177.066667v228.266667h-85.333333c-8.533333 0-14.933333-2.133333-19.2-8.533334-6.4-6.4-8.533333-12.8-8.533334-19.2v-569.6c0-8.533333 2.133333-14.933333 8.533334-19.2 6.4-6.4 12.8-8.533333 19.2-8.533333h142.933333v170.666667h283.733333v-170.666667h57.6l115.2 110.933333z m-226.133333 0h-57.6v-113.066666h57.6v113.066666z m245.333333 206.933334l59.733334 59.733333c2.133333 2.133333 4.266667 6.4 4.266666 10.666667s-2.133333 6.4-4.266666 10.666666l-238.933334 238.933334c-2.133333 2.133333-6.4 4.266667-10.666666 4.266666s-6.4-2.133333-10.666667-4.266666l-115.2-115.2c-2.133333-2.133333-4.266667-6.4-4.266667-10.666667s2.133333-6.4 4.266667-10.666667l59.733333-59.733333c2.133333-2.133333 6.4-4.266667 10.666667-4.266667s6.4 2.133333 10.666667 4.266667l44.8 44.8 168.533333-168.533333c2.133333-2.133333 6.4-4.266667 10.666667-4.266667s8.533333 2.133333 10.666666 4.266667z" p-id="1265"></path></svg>