<?xml version="1.0" standalone="no"?><!DOCTYPE svg PUBLIC "-//W3C//DTD SVG 1.1//EN" "http://www.w3.org/Graphics/SVG/1.1/DTD/svg11.dtd"><svg t="1597049795517" class="icon" viewBox="0 0 1024 1024" version="1.1" xmlns="http://www.w3.org/2000/svg" p-id="1916" xmlns:xlink="http://www.w3.org/1999/xlink" width="200" height="200"><defs><style type="text/css"></style></defs><path d="M421.39648 476.5696H275.0464a36.57728 36.57728 0 0 0 0 73.15456h146.35008a36.57728 36.57728 0 1 0 0-73.15456zM896.2048 0H93.63456A73.40032 73.40032 0 0 0 20.48 73.15456v877.69088A73.40032 73.40032 0 0 0 93.63456 1024H896.2048a73.40032 73.40032 0 0 0 73.19552-73.15456V73.15456A73.40032 73.40032 0 0 0 896.2048 0z m0 950.6816l-0.12288 0.16384H93.7984l-0.12288-0.12288V73.27744l0.12288-0.12288h802.28352l0.12288 0.12288v877.44512zM274.26816 256.6144h438.19008a36.57728 36.57728 0 1 0 0-73.15456H274.26816a36.57728 36.57728 0 0 0 0 73.15456z m0 146.14528h438.19008a36.57728 36.57728 0 1 0 0-73.15456H274.26816a36.57728 36.57728 0 0 0 0 73.15456z m413.94176 90.84928l-0.2048-0.2048-0.8192-0.73728-0.45056-0.4096-0.57344-0.49152-0.6144-0.49152-0.49152-0.4096-0.69632-0.45056-0.4096-0.32768-0.77824-0.45056-0.4096-0.28672-0.77824-0.4096-0.4096-0.28672-0.28672-0.12288-0.49152-0.24576-0.53248-0.24576-0.69632-0.32768-0.6144-0.24576-0.2048-0.12288-0.4096-0.16384-0.69632-0.24576-0.6144-0.2048-0.73728-0.24576-0.16384-0.04096-0.4096-0.12288-0.77824-0.2048-0.53248-0.12288-0.8192-0.16384h-0.16384l-0.4096-0.08192-0.8192-0.12288-0.65536-0.08192-0.69632-0.08192-0.8192-0.04096h-3.85024l-0.98304 0.08192-0.73728 0.08192-0.65536 0.08192-0.8192 0.12288-0.57344 0.12288-0.8192 0.16384-0.53248 0.12288-0.8192 0.2048-0.53248 0.16384-0.73728 0.24576-0.57344 0.2048-0.65536 0.24576-0.69632 0.28672-0.53248 0.24576-0.73728 0.32768-0.45056 0.24576-0.6144 0.28672-0.2048 0.12288-0.36864 0.2048-0.8192 0.49152-0.32768 0.16384-0.86016 0.57344-0.28672 0.2048-0.8192 0.6144-0.32768 0.24576-0.8192 0.6144-0.4096 0.36864-0.6144 0.53248a29.9008 29.9008 0 0 0-0.98304 0.94208l-98.18112 98.67264a28.59008 28.59008 0 0 0 40.5504 40.26368l49.3568-49.68448 0.6144 276.39808c0.04096 15.7696 12.82048 28.50816 28.59008 28.50816h0.08192a28.59008 28.59008 0 0 0 28.50816-28.672l-0.6144-276.64384 50.50368 50.176a28.59008 28.59008 0 1 0 40.3456-40.46848l-99.40992-98.7136z" p-id="1917"></path></svg>