<svg xmlns="http://www.w3.org/2000/svg" width="200" height="200" class="icon" viewBox="0 0 1024 1024"><defs><style/></defs><path d="M375.467 597.333h-153.6c-10.24 0-17.067-6.826-17.067-17.066s6.827-17.067 17.067-17.067h153.6c10.24 0 17.066 6.827 17.066 17.067s-6.826 17.066-17.066 17.066zm51.2-102.4c-6.827 0-10.24-3.413-13.654-6.826l-102.4-136.534c-6.826-6.826-3.413-17.066 3.414-23.893 6.826-6.827 17.066-3.413 23.893 3.413l102.4 136.534c6.827 6.826 3.413 17.066-3.413 23.893-3.414 3.413-6.827 3.413-10.24 3.413zM358.4 836.267c-3.413 0-6.827 0-6.827-3.414-6.826-3.413-10.24-13.653-6.826-23.893l68.266-136.533c3.414-6.827 13.654-10.24 23.894-6.827 6.826 3.413 10.24 13.653 6.826 23.893l-68.266 136.534c-3.414 6.826-10.24 10.24-17.067 10.24zm-136.533-307.2h-3.414l-204.8-51.2C3.413 474.453 0 467.627 0 457.387 6.827 423.253 37.547 358.4 102.4 358.4c75.093 0 143.36 51.2 146.773 54.613 6.827 6.827 10.24 17.067 3.414 23.894-6.827 6.826-17.067 10.24-23.894 3.413 0 0-61.44-47.787-126.293-47.787-37.547 0-58.027 34.134-64.853 58.027l187.733 47.787c10.24 3.413 13.653 10.24 13.653 20.48-3.413 3.413-10.24 10.24-17.066 10.24z"/><path d="M153.6 1006.933c-10.24 0-17.067-6.826-17.067-17.066 0-105.814 47.787-221.867 153.6-221.867 10.24 0 17.067 6.827 17.067 17.067s-6.827 17.066-17.067 17.066c-75.093 0-112.64 81.92-119.466 163.84 40.96-20.48 129.706-75.093 211.626-126.293 6.827-3.413 17.067-3.413 23.894 6.827 3.413 6.826 3.413 17.066-6.827 23.893-98.987 61.44-221.867 136.533-245.76 136.533zM512 358.4c-136.533 0-136.533-122.88-136.533-170.667 0-85.333 68.266-170.666 136.533-170.666S648.533 102.4 648.533 187.733c0 47.787 0 170.667-136.533 170.667zm0-307.2c-44.373 0-102.4 64.853-102.4 136.533 0 95.574 30.72 136.534 102.4 136.534s102.4-40.96 102.4-136.534C614.4 116.053 556.373 51.2 512 51.2z"/><path d="M512 904.533c-68.267 0-307.2-78.506-307.2-324.266 0-218.454 92.16-276.48 194.56-303.787 10.24-3.413 20.48 3.413 20.48 10.24 3.413 10.24 0 20.48-10.24 20.48-85.333 27.307-170.667 68.267-170.667 273.067C238.933 815.787 477.867 870.4 512 870.4s273.067-54.613 273.067-290.133c0-204.8-85.334-245.76-170.667-273.067-10.24-3.413-13.653-13.653-10.24-20.48 0-6.827 10.24-13.653 20.48-10.24 102.4 30.72 194.56 85.333 194.56 303.787 0 245.76-238.933 324.266-307.2 324.266z"/><path d="M597.333 699.733H426.667c-6.827 0-13.654-3.413-13.654-10.24l-51.2-102.4c-3.413-3.413-3.413-10.24 0-13.653l51.2-102.4c3.414-6.827 10.24-10.24 13.654-10.24h170.666c6.827 0 13.654 3.413 13.654 10.24l51.2 102.4c3.413 3.413 3.413 10.24 0 13.653l-51.2 102.4c0 6.827-6.827 10.24-13.654 10.24zM436.907 665.6h150.186l44.374-85.333-44.374-85.334H436.907l-40.96 85.334 40.96 85.333z"/><path d="M802.133 597.333h-153.6c-10.24 0-17.066-6.826-17.066-17.066s6.826-17.067 17.066-17.067h153.6c10.24 0 17.067 6.827 17.067 17.067s-6.827 17.066-17.067 17.066zm-204.8-102.4c-3.413 0-6.826 0-10.24-3.413-6.826-6.827-10.24-17.067-3.413-23.893l102.4-136.534c6.827-6.826 17.067-10.24 23.893-3.413 6.827 6.827 10.24 17.067 3.414 23.893l-102.4 136.534c-3.414 3.413-6.827 6.826-13.654 6.826zM665.6 836.267c-6.827 0-13.653-3.414-13.653-10.24L583.68 689.493c-3.413-6.826 0-17.066 6.827-23.893 6.826-3.413 17.066 0 23.893 6.827l68.267 136.533c3.413 6.827 0 17.067-6.827 23.893-3.413 3.414-6.827 3.414-10.24 3.414zm136.533-307.2c-6.826 0-13.653-6.827-17.066-13.654-3.414-10.24 3.413-17.066 13.653-20.48l187.733-47.786c-6.826-20.48-27.306-58.027-64.853-58.027-64.853 0-126.293 47.787-126.293 47.787-6.827 6.826-17.067 3.413-23.894-3.414-6.826-6.826-3.413-17.066 3.414-23.893 3.413-3.413 71.68-54.613 146.773-54.613 64.853 0 95.573 64.853 102.4 98.986 0 10.24-3.413 17.067-13.653 20.48l-204.8 51.2c0 3.414-3.414 3.414-3.414 3.414z"/><path d="M870.4 1006.933c-23.893 0-146.773-75.093-249.173-139.946-6.827-3.414-10.24-17.067-6.827-23.894s17.067-10.24 23.893-6.826c81.92 51.2 170.667 105.813 211.627 126.293-6.827-81.92-44.373-163.84-119.467-163.84-10.24 0-17.066-6.827-17.066-17.067s6.826-17.066 17.066-17.066c105.814 0 153.6 116.053 153.6 221.866 3.414 13.654-3.413 20.48-13.653 20.48zm-358.4 0c-17.067 0-30.72-6.826-40.96-17.066-30.72-34.134-27.307-95.574-27.307-102.4 0-10.24 10.24-17.067 17.067-17.067 10.24 0 17.067 10.24 17.067 17.067 0 13.653 0 58.026 17.066 78.506 10.24 10.24 23.894 10.24 34.134 0 17.066-17.066 17.066-61.44 17.066-78.506 0-10.24 6.827-17.067 17.067-17.067s17.067 6.827 17.067 17.067c0 6.826 3.413 71.68-27.307 102.4-10.24 10.24-23.893 17.066-40.96 17.066z"/></svg>