<?xml version="1.0" standalone="no"?><!DOCTYPE svg PUBLIC "-//W3C//DTD SVG 1.1//EN" "http://www.w3.org/Graphics/SVG/1.1/DTD/svg11.dtd"><svg t="1600247574849" class="icon" viewBox="0 0 1024 1024" version="1.1" xmlns="http://www.w3.org/2000/svg" p-id="1204" xmlns:xlink="http://www.w3.org/1999/xlink" width="200" height="200"><defs><style type="text/css"></style></defs><path d="M750.92992 204.8H819.2v614.4h-68.27008zM648.52992 546.14016h-409.6A34.23232 34.23232 0 0 0 204.8 580.25984V716.8a34.24256 34.24256 0 0 0 34.12992 34.12992h409.6c18.76992 0 34.14016-15.36 34.14016-34.12992V580.25984a34.24256 34.24256 0 0 0-34.14016-34.11968zM614.4 682.67008H273.07008V614.4H614.4v68.27008zM682.67008 443.72992a34.24256 34.24256 0 0 1-34.14016 34.12992H375.47008a34.24256 34.24256 0 0 1-34.14016-34.12992V307.2a34.24256 34.24256 0 0 1 34.14016-34.12992h273.05984A34.24256 34.24256 0 0 1 682.67008 307.2v136.52992z" p-id="1205"></path></svg>