<svg xmlns="http://www.w3.org/2000/svg" width="200" height="200" class="icon" viewBox="0 0 1024 1024"><defs><style/></defs><path d="M853.333 191.573l-62.293-6.4a2735.787 2735.787 0 0 0-560.64 0l-59.733 6.4a144.213 144.213 0 0 0-128 145.494v349.866a144.213 144.213 0 0 0 128 145.494l62.293 6.4a2735.787 2735.787 0 0 0 560.64 0l59.733-6.4a144.213 144.213 0 0 0 128-145.494V337.067a144.213 144.213 0 0 0-128-145.494zM640 538.453L474.027 649.387a32 32 0 0 1-47.36-26.454V401.067a32 32 0 0 1 49.92-26.454L642.56 485.547a31.573 31.573 0 0 1 0 52.906z"/></svg>